# xmcd
# Track frame offsets:
# 150
# 19810
# 40440
#
# Disc length: 813 seconds
# Revision: 0
# Processed by: cddbd v1.5.1PL2 Copyright (c) Steve Scherf et al.
# Submitted via: VisiTrax 2.9.10.228 - For more info visit www.synapsa.com
#
DISCID=1f032b03
DTITLE=Bob Carlisle - Father's Love
DYEAR=1998
DGENRE=Country
TTITLE0=Father's Love (Radio Mix)
TTITLE1=Father's Love (Original LP Version )
TTITLE2=Father's Love (LP Mix )
EXTD=
EXTT0=
EXTT1=
EXTT2=
PLAYORDER=
